<?xml version="1.0" standalone="no"?>
<!DOCTYPE svg PUBLIC "-//W3C//DTD SVG 20010904//EN"
 "http://www.w3.org/TR/2001/REC-SVG-20010904/DTD/svg10.dtd">
<svg version="1.0" xmlns="http://www.w3.org/2000/svg"
 width="1080.000000pt" height="1080.000000pt" viewBox="0 0 1080.000000 1080.000000"
 preserveAspectRatio="xMidYMid meet">
<metadata>
Created by potrace 1.11, written by Peter Selinger 2001-2013
</metadata>
<g transform="translate(0.000000,1080.000000) scale(0.100000,-0.100000)"
fill="#000000" stroke="none">
<path d="M0 5400 l0 -5400 5400 0 5400 0 0 5400 0 5400 -5400 0 -5400 0 0
-5400z m3954 -34 c238 -62 424 -198 530 -388 39 -72 71 -161 81 -230 l7 -48
-221 0 c-206 0 -221 1 -221 18 0 36 -52 122 -107 177 -63 63 -169 120 -252
135 -175 33 -372 -29 -496 -156 -69 -69 -132 -185 -159 -289 -30 -114 -41
-276 -28 -404 20 -199 72 -329 173 -433 119 -122 334 -183 520 -148 70 13 183
68 235 114 71 61 146 193 169 296 l7 30 -241 0 -241 0 0 175 0 175 435 0 435
0 0 -560 0 -560 -144 0 c-129 0 -145 2 -150 18 -3 9 -13 67 -22 129 l-18 112
-70 -72 c-109 -112 -202 -168 -343 -209 -68 -20 -100 -23 -243 -22 -193 1
-268 17 -415 88 -314 152 -497 445 -535 857 -31 333 57 663 234 884 113 142
263 242 446 299 124 38 186 45 370 41 137 -3 182 -7 264 -29z m1308 -758 l3
-743 23 -57 c32 -80 97 -148 174 -184 59 -27 71 -29 183 -28 100 0 130 4 178
23 89 35 137 77 177 155 l35 69 3 753 3 754 225 0 225 0 -3 -767 -3 -768 -28
-90 c-41 -131 -81 -200 -167 -285 -142 -143 -317 -207 -596 -217 -304 -12
-531 62 -695 226 -85 85 -125 156 -161 286 -22 79 -23 89 -26 848 l-3 767 225
0 225 0 3 -742z m1918 -108 l0 -850 515 0 515 0 0 -190 0 -190 -735 0 -735 0
0 1040 0 1040 220 0 220 0 0 -850z m1592 108 l3 -743 23 -57 c32 -80 97 -148
174 -184 59 -27 71 -29 183 -28 99 1 130 5 178 23 89 35 137 77 177 155 l35
69 3 753 3 754 225 0 225 0 -4 -767 c-3 -750 -4 -770 -25 -843 -37 -129 -87
-216 -171 -300 -144 -143 -319 -207 -597 -217 -304 -12 -531 62 -695 226 -85
85 -125 156 -161 286 -22 79 -23 89 -26 848 l-3 767 225 0 225 0 3 -742z
m-4562 -1706 l0 -169 -544 -684 -544 -684 544 -3 544 -2 0 -185 0 -185 -815 0
-815 0 0 184 0 183 535 669 535 669 -520 3 -520 2 0 185 0 185 800 0 800 0 0
-168z m1655 -764 c180 -513 345 -981 366 -1040 l39 -108 -238 0 -238 0 -26 82
c-15 46 -45 143 -68 216 l-41 132 -382 0 -382 0 -71 -212 -70 -213 -232 -3
c-128 -1 -232 -1 -232 1 0 4 717 2014 731 2050 l11 27 252 0 252 0 329 -932z
m1775 908 c392 -108 603 -449 603 -971 -1 -575 -253 -981 -665 -1065 -85 -18
-139 -20 -595 -20 l-503 0 0 1041 0 1040 548 -3 c488 -4 554 -6 612 -22z
m2410 -161 l0 -185 -550 0 -550 0 0 -215 0 -215 505 0 505 0 0 -185 0 -185
-505 0 -505 0 0 -270 0 -270 575 0 575 0 0 -185 0 -185 -790 0 -790 0 0 1040
0 1040 765 0 765 0 0 -185z"/>
<path d="M5143 2187 l-130 -402 128 -3 c70 -1 188 -1 261 0 l134 3 -125 397
c-69 218 -129 399 -132 402 -3 3 -64 -175 -136 -397z"/>
<path d="M6910 2030 l0 -680 233 0 c254 0 314 9 396 57 68 40 129 110 171 198
47 100 67 177 82 327 13 132 2 315 -27 423 -53 199 -162 313 -329 344 -33 6
-165 11 -293 11 l-233 0 0 -680z"/>
</g>
</svg>
